# xmcd
#
# Track frame offsets:
#	150
#	1480
#	11265
#	23410
#	34935
#	47228
#	50934
#	61813
#	65206
#	81945
#	85829
#	89440
#	99918
#	119820
#
# Disc length: 1704 seconds
#
# Revision: 1
# Processed by: cddbd v1.5.2PL0 Copyright (c) Steve Scherf et al.
# Submitted via: EasyCDDAExtractor 5.0.6
#
DISCID=b506a60e
DTITLE=J Dilla - Ruff Draft
DYEAR=2007
DGENRE=Hip-Hop
TTITLE0=Intro
TTITLE1=Let's Take It Back
TTITLE2=Reckless Driving
TTITLE3=Nothing Like This
TTITLE4=The $
TTITLE5=Interlude
TTITLE6=Make 'Em NV
TTITLE7=Interlude
TTITLE8=Crushin' (Yeeeeaah!)
TTITLE9=Shouts
TTITLE10=Intro (Alt)
TTITLE11=Wild
TTITLE12=Take Notice (Feat. Guilty Simpson)
TTITLE13=Shouts (Alt)
EXTD=
EXTT0=
EXTT1=
EXTT2=
EXTT3=
EXTT4=
EXTT5=
EXTT6=
EXTT7=
EXTT8=
EXTT9=
EXTT10=
EXTT11=
EXTT12=
EXTT13=
PLAYORDER=
